<?xml version="1.0" encoding="utf-8"?>
<!-- Generator: Adobe Illustrator 27.0.0, SVG Export Plug-In . SVG Version: 6.00 Build 0)  -->
<svg version="1.1" xmlns="http://www.w3.org/2000/svg" xmlns:xlink="http://www.w3.org/1999/xlink" x="0px" y="0px"
	 viewBox="0 0 1924.23 485.19" style="enable-background:new 0 0 1924.23 485.19;" xml:space="preserve">
<style type="text/css">
	.st0{fill:#DB2E32;}
	.st1{fill:#F9C637;}
	.st2{fill:#F2D35E;}
	.st3{fill:#DB2F31;}
	.st4{fill:#162636;}
	.st5{fill:#FFFFFF;}
</style>
<g id="Layer_2">
	<rect x="1461.91" y="152.29" class="st0" width="58.76" height="219.33"/>
	<circle class="st0" cx="1490.52" cy="86.95" r="39.02"/>
	<rect x="1584.32" y="152.29" class="st0" width="58.76" height="219.33"/>
	<circle class="st0" cx="1612.94" cy="86.95" r="39.02"/>
	<polygon class="st0" points="1721.74,200.65 1721.74,371.63 1779.28,371.63 1779.28,200.65 1823.96,200.65 1823.96,152.29 
		1779.43,152.29 1779.43,56.19 1721.74,70.88 1721.74,152.29 1685.42,152.29 1685.42,201.06 	"/>
	<path class="st1" d="M301.4,28.93l-90.92,430.95l169-145.52l0,0c24.62-22.59,42.69-52.8,50.17-87.97
		C448.76,136.45,391.34,48.04,301.4,28.93z"/>
	<path class="st2" d="M301.4,28.95C211.46,9.84,123.05,67.26,103.94,157.2c-7.63,35.92-3.06,71.6,10.92,102.72l0,0l95.62,199.98
		L301.4,28.95z"/>
	<path class="st3" d="M490.62,306.74"/>
	<path class="st4" d="M728.52,281.85h148.94c0-32.85,13.1-133.84-100.97-133.84c-76.33,0-104.62,57.23-104.62,111.81
		c0,76.1,44.2,111.81,104.62,111.81c72.41,0,90.46-21.93,90.46-21.93l-18.46-38.05c0,0-18.26,12.96-72,12.96
		C732.9,324.6,728.52,281.85,728.52,281.85z"/>
	<path class="st5" d="M728.52,238.19h95.89c0,0,3.26-43.25-45.29-43.25C730.56,194.93,728.52,238.19,728.52,238.19z"/>
	<path class="st4" d="M923.16,371.63V148.01h55.5v29.79c0,0,17.44-29.79,69.78-29.79c87.53,0,79.16,43.76,79.16,223.62h-57.54
		c0,0,0-75.39,0-133.44c0-77.33-91.41-36.62-91.41,11.12c0,52.74,0,122.32,0,122.32H923.16z"/>
	<path class="st4" d="M1346.79,180.63c-14.67-20.19-37.03-32.62-68.2-32.62c-77.74,0-108.14,51.34-108.14,114.67
		s44.81,108.95,108.14,108.95c31.17,0,53.53-11.05,68.2-29.83l0,0v29.83h53.4V72.31l-53.4-16.12L1346.79,180.63L1346.79,180.63z"/>
	<path class="st5" d="M1342.24,259.82c0-35.5-25.12-64.07-56.11-64.07c-45.09,0-56.11,33.08-56.11,64.07s8.57,63.66,56.11,63.66
		C1317.12,323.47,1342.24,304.7,1342.24,259.82z"/>
	<path class="st4" d="M490.62,306.74c20.3,20.3,93.04,34.07,93.04,0c0-25.71-109.36-19.18-109.36-90.18
		c0-69.57,67.33-68.55,88.55-68.55s53.25,3.47,65.29,15.51l-21.22,43.66c0,0-25.61-12.55-45.6-12.55s-31.93,3.47-31.93,15
		c0,36.73,108.54,17.27,108.54,100.38c0,38.36-35.09,61.62-84.88,61.62s-83.24-19.59-83.24-19.59L490.62,306.74z"/>
	<circle class="st5" cx="267.41" cy="193.37" r="89.77"/>
	<polygon class="st4" points="200.35,136.64 182.12,220.64 245.78,270.02 261.82,184.87 	"/>
	<polygon class="st4" points="298.62,177.08 294.6,213.06 322.49,203.33 327.08,172.49 350.34,166.68 335.04,251.15 254.25,271.34 
		272.61,187.49 	"/>
	<polygon class="st4" points="267.41,182.28 296.38,174.53 233.13,125.56 204.97,130.87 	"/>
	<polygon class="st4" points="324.94,166.68 350.34,160.25 283.32,111.28 261.82,117.81 	"/>
	<polygon class="st2" points="316.78,166.68 302.29,172.08 238.43,123.52 258.43,118.63 	"/>
	<polygon class="st2" points="303.31,176.88 299.64,203.33 316.78,199.02 319.64,172.08 	"/>
</g>
<g id="Layer_3">
</g>
</svg>
